<?xml version="1.0" encoding="utf-8"?>
<!-- Generator: Adobe Illustrator 24.1.1, SVG Export Plug-In . SVG Version: 6.00 Build 0)  -->
<svg version="1.1" id="flag-icons-ad" xmlns="http://www.w3.org/2000/svg" xmlns:xlink="http://www.w3.org/1999/xlink" x="0px"
	 y="0px" viewBox="0 0 640 480" style="enable-background:new 0 0 640 480;" xml:space="preserve">
<style type="text/css">
	.st0{fill:#D0103A;}
	.st1{fill:#FEDF00;}
	.st2{fill:#0018A8;}
	.st3{fill:#C7B37F;stroke:#703D29;stroke-width:0.75;stroke-miterlimit:10;}
	.st4{fill:none;stroke:#703D29;stroke-width:0.6;}
	.st5{fill:#D52B1E;}
	.st6{fill:#FFFFFF;}
	.st7{fill:#D52B1E;stroke:#D52B1E;stroke-width:0.3;}
	.st8{fill:none;stroke:#703D29;stroke-width:0.5;}
</style>
<path class="st0" d="M0,0h640v480H0V0z"/>
<path class="st1" d="M0.3,0.5h435.2v480H0.3V0.5z"/>
<path class="st2" d="M0,0h204.8v480H0V0z"/>
<path class="st3" d="M300.4,136.6c7.7,0,10.9,6.6,18.6,6.6c4.7,0,7.5-1.5,11.7-3.9c2.9-1.6,4.7-2.5,8-2.5c3.4,0,5.5,1,7.3,4
	c1,1.6,1.8,4.9,1.3,6.7c-0.6,2.9-1.5,5.6-2.7,8.3c-0.7,1.6-1.3,2.5-1.3,4.2c0,4.1,5.6,5.5,9.4,5.6c0.8,0,7.7,0,12-4.2
	c-2.3-0.1-4.9-2-4.9-4.3c0-2.6,1.8-4.3,4.3-5.1c0.5-0.1,1.3,0.3,1.7,0c0.7-0.3,0.4-1,1-1.4c1.2-1,2-1.6,3.6-1.6c1,0,1.6,0.1,2.5,0.7
	c0.4,0.4,0.6,0.8,1,0.8c1.2,0,1.8-0.8,3-0.8c0.8,0,1.6,0.2,2.3,0.6c0.6,0.3,0.6,1.5,1.4,1.5c0.4,0,2.4-0.9,3.5-0.9
	c2.2,0,3.4,0.8,4.8,2.5c0.4,0.5,0.6,1.4,1,1.4c2,0.2,3.8,1.3,4.8,3c0.3,0.4,0.7,1.4,1.1,1.5c0.6,0.3,1,0.2,1.7,0.7
	c1.7,1,2.7,2.8,2.8,4.8c0,0.7-0.3,1.6-0.5,2.2c-1.8,6.5-6.3,8.6-10.8,14.3c-2,2.4-3.5,4.3-3.5,7.4c0,0.7,1,2.1,1.3,2.7
	c-0.2-1.4,0.5-3.2,2-3.3c2.1,0,3.8,1.5,4,3.6c0,0.6-0.1,1.2-0.3,1.8c1.2-0.8,2.6-1.2,4-1.4h1.9c3.3,0,7,1.9,9.3,3.8
	c4.9,4.2,7.6,10.4,7.3,16.8c-0.8,5.2-0.3,14.8-13.8,18.6c2.5,1,4.2,3,4.2,5.2c0.1,2.5-1.8,4.6-4.3,4.7c0,0-0.1,0-0.1,0
	c-1.3,0.1-2.6-0.4-3.5-1.4c-2.8,2.8-3.3,5.7-3.3,9.7c0,2.4,0.4,3.8,1.4,6c1,2.2,1.8,3.5,3.7,5.1c1-1.5,2.1-2.6,4-2.6
	c1.7,0,3.2,0.6,3.9,2.2c0.2,0.5,0,0.9,0.3,1.4c0.3,0.6,0.8,0.7,1.1,1.3c0.5,1,0,1.8,0.5,2.7c0.3,0.7,0.9,0.8,1.2,1.4
	c0.4,1,0.5,1.6,0.5,2.7c0,3-2.7,5.2-5.7,5.2c-1,0-1.4-0.4-2.3-0.3c1.7,1.7,3,2.5,4.3,4.5c2,3,3.1,6.6,3,10.3
	c0.1,3.9-0.9,7.8-2.8,11.2c-1.5,3.4-3.9,6.4-7,8.5c-4.7,3.4-10.2,5.6-16,6.4c-3.6,0.7-7.3,1.2-11,1.4l-14.1,0.8
	c-7.2,0.4-12.2,1.5-17.3,6.6c2.4,1.7,4,3.5,4,6.4c0,3-1.8,5.3-4.7,6.2c-0.7,0.2-1.2,0-1.9,0.4s-0.7,1.3-1.4,1.7
	c-1.1,0.7-2.5,1.1-3.8,1c-2.4,0.2-4.8-0.7-6.4-2.5c-2.2,1.8-3,3.4-5.5,4.9c-0.8,0.4-1.2,1-2.1,1c-1.5,0-2.2-1-3.4-1.8
	c-1.6-1.1-3.1-2.5-4.4-4c-2.3,1.3-3.6,2.4-6.3,2.4c-1.4,0.1-2.8-0.3-4-1c-0.6-0.5-0.8-1.2-1.5-1.6c-0.7-0.5-1.3-0.3-2.1-0.7
	c-3-1.3-5-3.5-5-6.8c0-2.9,1.8-4.7,4.4-6c-5-5-10-5.8-17-6.2l-14-0.8c-4.4-0.3-6.8-0.7-11-1.4c-3.3-0.5-5.2-0.7-8.2-2.1
	c-10.2-4.8-16.8-11.3-18-22.5c-0.2-1-0.2-1.5-0.2-2.5c0-5.8,2.3-9.4,6.4-13.5c-1-0.3-1.7,0-2.8-0.3c-2.5-1-4.4-2.7-4.4-5.5
	c0-1,0-1.7,0.5-2.6c0.4-0.6,1-0.7,1.2-1.4c0.2-1,0-1.6,0.4-2.5c0.3-0.5,0.8-0.6,1-1.2c1-1.9,2-3.4,4.1-3.4c1.8,0,3,1,3.8,2.5
	c1.8-0.8,2.2-2.1,3.2-3.7c2.5-4,3-8.9,1.4-13.3c-0.4-1.5-0.6-2.5-1.8-3.7c-1,1-2,1.4-3.4,1.4c-2.9,0-5-2.5-5-5.3
	c-0.1-2,1.1-3.8,3-4.6c-1.6-1.4-3-1.5-4.7-2.6c-2.6-1.6-3.5-3.4-5.2-6c-1.2-1.6-1.5-2.8-2-4.7c-0.9-2.5-1.2-5.2-1-7.8
	c0.6-5,1.5-8,4.6-11.9c1.8-2.3,3-3.7,5.8-4.9c2.3-1,3.7-1.7,6.2-1.7l2,0.1c1,0.1,1.9,0.3,2.8,0.8c0.4,0.2,1.1,0.9,1.1,0.4
	s-0.3-0.8-0.3-1.3c0-2,1.5-4,3.6-4c1.5,0,2.1,1.4,2.9,2.7c0.4-0.8,0.7-1.4,0.7-2.3c0-3.4-1.9-5.2-4-7.9c-4.7-5.8-10.5-8.5-10.5-16
	c0-2.2,1-3.7,3-4.9c0.5-0.3,1.3,0,1.8-0.3s0.4-1,0.7-1.4c0.5-0.7,1-1,1.6-1.6c1-1,2-0.6,3.1-1.5c0.6-0.4,0.8-1,1.2-1.4
	c1.3-1.6,2.5-2.4,4.6-2.4c1,0,1.6,0,2.5,0.4l1,0.5c0.3-0.2,0.8-0.8,1.5-1.1c0.7-0.4,1.4-0.6,2.2-0.6c1.1,0,1.8,0.6,3,0.6
	c0.3,0,0.4-0.4,0.8-0.6c1-0.7,1.5-1,2.7-1s1.8,0.3,2.8,1c1,0.5,1,1.3,2,1.8c0.5,0.3,1,0.2,1.5,0.4c2.6,0.9,4.5,2.6,4.5,5.3
	c0,1.5-0.3,2.5-1.4,3.5c-0.9,0.7-1.7,0.6-2.8,1c3.2,2.6,7.2,3.8,11.3,3.5c4.2,0,9.3-1.7,9.3-5.9c0-2-1-3-1.8-4.8
	c-1.4-2.6-2.1-5.5-2.1-8.5c0-2.8,0.3-4.5,1.9-6.7C295.5,137.2,297.5,136.6,300.4,136.6L300.4,136.6z"/>
<g>
	<g>
		<path class="st4" d="M402,209.3 M398.2,214.7 M392.2,216.4 M381.2,271.1l-0.2,2.5c-0.2,2.4-0.9,4.8-2,7c-1,2.1-2.5,4-4.2,5.6
			c-1.7,1.7-3.7,3-5.9,4c-2,1.1-4.2,1.8-6.5,2.3c-4.3,0.9-8.8,1.1-13.2,0.6c-2.7-0.2-4.1-0.5-6.8-0.8c-2.2-0.1-3.4-0.3-5.6-0.3
			c-3.7-0.1-7.4,0.6-10.9,1.9c-2.7,1-5.7,3-6.4,3.8c-0.6-0.9-3.7-2.8-6.3-3.8c-1.7-0.7-3.4-1.2-5.2-1.5c-2.2-0.4-3.5-0.4-5.8-0.4
			c-2.2,0-3.4,0.2-5.6,0.4c-2.6,0.2-4,0.6-6.7,0.7c-2.5,0.2-3.9,0.3-6.3,0.2c-2.4,0-4.7-0.3-7-0.8c-2.3-0.4-4.4-1.2-6.5-2.2
			c-2.2-1-4.1-2.4-5.8-4.1c-1.8-1.6-3.2-3.5-4.2-5.7c-1.1-2.2-1.8-4.5-2-6.9c-0.2-1-0.2-2.5-0.2-2.5V169.3h123.2v101.8H381.2z"/>
	</g>
</g>
<g transform="matrix(.64 0 0 .64 0 16)">
	<path class="st5" d="M412.7,249.3h82.1v82h-82.1V249.3z"/>
	<path id="a" class="st6" d="M451.2,313.8c0,0,0,3-0.8,5.3c-1,2.7-1,2.7-1.9,4c-1,1.6-2.3,2.9-3.8,4c-2,1.2-4,1.8-6,1.6
		c-5.4-0.4-8-6.4-9.2-11.2c-1.3-5.1-5-8-7.5-6c-1.4,1-1.4,2.8-0.3,4.6c1.1,1.3,2.5,2.3,4.1,2.8l-2.9,3.7c0,0-6.3-0.8-7.5-7.4
		c-0.5-2.5,0.7-7.1,4.9-8.5c5.3-1.8,8.6,2,10.3,5.2c2.2,4.4,3.2,12.4,9.4,11.2c3.4-0.7,5-5.6,5-7.9l2.4-2.6L451.2,313.8L451.2,313.8
		L451.2,313.8z"/>
	<g transform="matrix(-1 0 0 1 907.5 0)">
		<path id="a_1_" class="st6" d="M456.3,313.8c0,0,0,3,0.8,5.3c1,2.7,1,2.7,1.9,4c1,1.6,2.3,2.9,3.8,4c2,1.2,4,1.8,6,1.6
			c5.4-0.4,8-6.4,9.2-11.2c1.3-5.1,5-8,7.5-6c1.4,1,1.4,2.8,0.3,4.6c-1.1,1.3-2.5,2.3-4.1,2.8l2.9,3.7c0,0,6.3-0.8,7.5-7.4
			c0.5-2.5-0.7-7.1-4.9-8.5c-5.3-1.8-8.6,2-10.3,5.2c-2.2,4.4-3.2,12.4-9.4,11.2c-3.4-0.7-5-5.6-5-7.9l-2.4-2.6L456.3,313.8
			L456.3,313.8L456.3,313.8z"/>
	</g>
	<path class="st1" d="M461.1,279l10.8-11.7c0,0,1.6-1.3,1.6-3.4l-2.2,0.4l-0.5-1.2l-0.1-1.1l3-0.7V260l0.3-1.3l-3.2,0.2l0.3-1.4
		l0.5-1l1.9-0.4h1.9c1.8-3.4,9.2-6.4,14.4-1c3.8,4,3,11.2-2,13.2c-2.3,1-5,0.6-6.8-1.1l2-4c2.7,1.7,5-0.3,4.8-2.4
		c-0.2-2.7-2-4.3-4.3-4.5s-4,1-5,3c-0.6,1.3-0.3,2.2-0.5,3.6c-0.2,1.5,0,2.3-0.5,3.8c-0.5,1.4-1.3,2.6-2.4,3.6l-11,12l-43,46.4
		l-3.2-3L461.1,279L461.1,279z"/>
	<path class="st6" d="M429.5,283c0,0,2.7,13.4,11.9,33.5c4.7-1.7,7.4-2.8,12.4-2.8c4.9,0,7.6,1,12.3,2.8c5.1-10.7,9.1-22,11.9-33.5
		l-24.2-31l-24.4,31H429.5z"/>
	<path class="st1" d="M456.1,262.4l16.8,21.7c0,0-2.2,10.5-9,26.3c-2.7-0.6-5-1.1-7.8-1.3V262.4z M451.4,262.4l-16.8,21.7
		c0,0,2.2,10.5,9,26.3c2.7-0.6,5-1.1,7.8-1.3V262.4z"/>
</g>
<g>
	<path class="st1" d="M322.3,175.5h52.6V228h-52.6V175.5z"/>
	<path class="st5" d="M329.7,175.5h7.8V228h-7.8V175.5z M344.7,175.5h7.8V228h-7.8V175.5z M359.7,175.5h7.9V228h-7.9V175.5z"/>
</g>
<g>
	<path class="st1" d="M264.3,273.5c0.1,1,0.5,2.6,1.4,4.3c1,1.5,0.6,1.4,2.7,3.8c1.2,1.2,2.5,2.2,4,2.9c4.7,2,9.9,2.9,15,2.6
		c2.7-0.1,4.8-0.4,6.6-0.7c3.6-0.5,7.3-0.7,11-0.6c1.5,0,3,0.3,4.7,0.6c3.5,0.7,7,2,7,2v-54.7h-52.6V271l0.2,2.4L264.3,273.5z"/>
	<path class="st7" d="M270.4,283.1l2.5,1.5l3.4,1.2v-52.2h-5.9V283.1z M299.6,285.5v-51.9h-5.8v52.8l5.8-0.7V285.5z M311.3,233.6
		h-5.8v52.1c1.9,0.2,3.8,0.6,5.8,1v-53V233.6z M287.9,233.6V287c0,0-3.8,0.2-5.8,0v-53.4H287.9z"/>
</g>
<g transform="matrix(.64 0 0 .64 0 16)">
	<path class="st1" d="M585.5,402.4c-10.1,37.4-56.5,10.5-81.9,23.4c0,0,0-85.8,0-85.8C587.1,347.2,589.7,309.9,585.5,402.4z"/>
	<g id="b">
		<path class="st5" d="M524.6,347c-12,10.4-8.6,8.4,3.5,13.2c4.4,13.6-3.7,1.1,2.7,17.2c2.3,1.4,3.1-4.4,2.1-4.9
			c-5.4-6.4,11.1-6.7,3.8,7.8c0.8,0.4,3.1,1.5,3.2-0.1c0.6-1,1.8,0,1.4-1.4c-4.4-10.2,9.9-15.1,14.1-7.6c1,0.1,0.9-0.9,0.9-1.6
			c2-0.8,2.9,4,3.2-0.2c3.9,0.1-4.6,7.6-5.5,8.8c2.3,1.7,3.1-0.3,5.1-0.8c0.6-4,6.6-5.5,5.5-9.4c3.5,3.2,1.3,9-0.8,12.3
			c5.4,3.6,7-12.6,4.1-15.4c11-26.4-22.4-9.4-37-13.4C537.7,347.2,527.5,348.3,524.6,347z"/>
	</g>
	<g>
		<g id="b_1_">
			<path class="st5" d="M524.6,383.6c-12,10.4-8.6,8.4,3.5,13.2c4.4,13.6-3.7,1.1,2.7,17.2c2.3,1.4,3.1-4.4,2.1-4.9
				c-5.4-6.4,11.1-6.7,3.8,7.8c0.8,0.4,3.1,1.5,3.2-0.1c0.6-1,1.8,0,1.4-1.4c-4.4-10.2,9.9-15.1,14.1-7.6c1,0.1,0.9-0.9,0.9-1.6
				c2-0.8,2.9,4,3.2-0.2c3.9,0.1-4.6,7.6-5.5,8.8c2.3,1.7,3.1-0.3,5.1-0.8c0.6-4,6.6-5.5,5.5-9.4c3.5,3.2,1.3,9-0.8,12.3
				c5.4,3.6,7-12.6,4.1-15.4c11-26.4-22.4-9.4-37-13.4C537.7,383.8,527.5,384.9,524.6,383.6z"/>
		</g>
	</g>
</g>
<path class="st8" d="M264.1,175.5h52.6V228h-52.6V175.5z M322.3,175.5h52.6V228h-52.6V175.5z M264.3,273.5c0.1,1,0.5,2.6,1.4,4.3
	c1,1.5,0.6,1.4,2.7,3.8c1.2,1.2,2.5,2.2,4,2.9c4.7,2,9.9,2.9,15,2.6c2.7-0.1,4.8-0.4,6.6-0.7c3.6-0.5,7.3-0.7,11-0.6
	c1.5,0,3,0.3,4.7,0.6c3.5,0.7,7,2,7,2v-54.7h-52.6V271l0.2,2.4L264.3,273.5z M374.7,273.5c-0.2,1.5-0.7,3-1.4,4.3
	c-1,1.5-0.6,1.4-2.7,3.8c-1.2,1.2-2.5,2.2-4,2.9c-1.3,0.7-2.3,1-4.4,1.6c-3.5,0.9-7,1.2-10.6,1c-2.7-0.1-4.8-0.5-6.5-0.7
	c-2.4-0.3-4.8-0.5-7.2-0.6c-1.3-0.1-2.6-0.1-3.9,0c-1.5,0-3,0.3-4.7,0.6c-3.5,0.7-7,2-7,2v-54.8H375v37.5L374.7,273.5L374.7,273.5z"
	/>
</svg>
