<?xml version="1.0" encoding="utf-8"?>
<!-- Generator: Adobe Illustrator 24.1.1, SVG Export Plug-In . SVG Version: 6.00 Build 0)  -->
<svg version="1.1" id="flag-icons-hr" xmlns="http://www.w3.org/2000/svg" xmlns:xlink="http://www.w3.org/1999/xlink" x="0px"
	 y="0px" viewBox="0 0 640 480" style="enable-background:new 0 0 640 480;" xml:space="preserve">
<style type="text/css">
	.st0{fill:#171796;}
	.st1{fill:#FFFFFF;}
	.st2{fill:#FF0000;}
	.st3{fill:#0093DD;}
	.st4{fill:#F7DB17;}
</style>
<path class="st0" d="M0,0h640v480H0V0z"/>
<path class="st1" d="M0,0h640v320H0V0z"/>
<path class="st2" d="M0,0h640v160H0V0z M320,364.1c51.3,0,93.3-42,93.3-93.3V160H226.7v110.8C226.7,322.2,268.7,364.2,320,364.1
	L320,364.1z"/>
<path class="st1" d="M320,362.6c50.5-0.1,91.4-41,91.6-91.5V161.8H228.5V271c0.2,50.5,41,91.3,91.5,91.5V362.6z"/>
<g>
	<path class="st2" d="M267.1,165.2H232v38.7h35.2L267.1,165.2z M267.1,242.6h35.3v-38.7H267L267.1,242.6z M232,270.9
		c0,3.5,0.2,7,0.6,10.4h34.6v-38.7H232V270.9z M337.7,242.6h-35.2v38.7h35.2V242.6z M337.7,320h35.2v-38.7h-35.2V320z M372.9,341.2
		c7.8-5.9,14.6-13.1,20.1-21.2h-20L372.9,341.2L372.9,341.2z M267.1,320h35.3v-38.7H267L267.1,320z M247,320
		c5.5,8.1,12.3,15.3,20.1,21.2V320H247z M326.1,358.7c4-0.3,7.7-0.8,11.5-1.6V320h-35.2v37.1c3.8,0.8,7.6,1.3,11.4,1.6
		C317.9,359,322,358.9,326.1,358.7L326.1,358.7z"/>
	<path class="st2" d="M407.4,281.3c0.4-3.4,0.6-6.9,0.6-10.4v-28.3h-35.2v38.7H407.4z M337.6,242.6h35.2v-38.7h-35.2V242.6z
		 M337.6,165.2h-35.2v38.7h35.2V165.2z M408,203.9v-38.7h-35.2v38.7H408z"/>
</g>
<path class="st1" d="M410,158.8l21.8-49.5l-16.6-26.8l-27.6,10.2l-19.4-22.2l-25.4,14.7L320,66.5l-22.7,18.6l-25.5-14.6l-19.4,22.2
	l-27.6-10.3l-16.6,27l21.8,49.4c28.3-12.8,59-19.4,90-19.3C352,139.5,382.5,146.4,410,158.8L410,158.8z"/>
<path class="st3" d="M253,94.8l-27.4-10l-15.3,24.7l5.9,13.3l14.8,33.7c11.2-5,22.8-9,34.6-12L253,94.8z"/>
<path class="st1" d="M251.4,119.3c1,1.9,1.6,4,1.6,6.2c0,7.3-6,13.3-13.4,13.3c-6.4,0-11.9-4.5-13.1-10.8c2.4,4.3,6.8,6.9,11.7,6.9
	c7.4,0,13.4-6,13.4-13.4C251.6,120.8,251.5,120,251.4,119.3z"/>
<path class="st4" d="M227.6,114l1-4.9l-3.8-3.2l-0.1-0.1l0.2-0.1l4.6-1.6l1-4.8v-0.2l0.2,0.1l3.7,3.2l4.6-1.6h0.2v0.2l-1,4.8
	l3.7,3.2l0.2,0.2h-0.3l-4.6,1.6l-1,4.8v0.2l-0.1-0.1l-3.7-3.2l-4.6,1.6h-0.3L227.6,114z"/>
<path class="st0" d="M297.5,87.4L272.1,73L253,94.9l12.6,49.6c11.8-3,23.9-5,36.1-6L297.5,87.4z"/>
<path class="st2" d="M262.5,132.2c12.5-3.2,25.3-5.3,38.2-6.4l-1-12.9c-13.6,1.1-27.1,3.3-40.4,6.7L262.5,132.2L262.5,132.2z
	 M256.2,107.2c13.9-3.5,28.1-5.8,42.4-7l-1.1-12.7c-15,1.2-29.9,3.7-44.5,7.4C253,94.9,256.2,107.2,256.2,107.2z"/>
<g transform="translate(-160) scale(.00237)">
	<path class="st3" d="M342.7,87.4L342.7,87.4L320.1,69l-22.5,18.4l4.2,51.1c6-0.5,12.1-0.8,18.3-0.8c6.2,0,12.3,0.3,18.4,0.8
		L342.7,87.4L342.7,87.4z"/>
	<g id="a">
		<path class="st4" d="M320,110.4c0,0-0.1,0-0.2,0.1c-0.4,0.6-0.9,1.1-1.3,1.7c-0.5,0.1-0.6,0.4-0.4,0.8c-0.6-0.1-0.7,0.5-0.7,1
			c-0.6-0.9-1.2-1.1-1.9-0.7c0-0.5-0.4-0.8-1-0.9c-0.4,0-0.8-0.2-1-0.3c-0.1-0.1-0.3-0.2-0.4-0.3c-0.3-0.2-0.5,0-0.4,0.2
			c0.6,1,1.3,2.1,1.9,3.1c0,0.2,0,0.4,0.2,0.5c0.1,0.3,0.2,0.6,0.3,0.9c0,0.1,0,0.2-0.1,0.3c-0.5-0.2-1-0.3-1.6-0.3
			c-0.4,0-0.7-0.1-0.9-0.3c-0.1-0.1-0.2-0.1-0.2,0.2c0,1.3,0.4,2.4,1.4,3.5c-0.5,0-1.1,0-1.6,0c-0.2,0-0.2,0.1-0.2,0.2
			c0.3,0.7,0.8,1.4,1.9,1.8c-0.5,0.3-0.8,0.7-0.8,1.2c0,0.5-0.2,0.9-0.5,1.1c-0.1,0.1-0.2,0.2-0.1,0.3c0.6,0.4,1.3,0.5,2.1,0.3
			c-0.4,0.6-0.5,1.3-0.5,2c0.5,0.1,1,0,1.5-0.1c-0.1,0.1-0.1,0.4-0.1,0.7c0,0.3-0.1,0.5-0.2,0.8c-0.1,0.1-0.2,0.2,0,0.2
			c0.8,0.2,1.5,0.1,2.2-0.1c0,0.6,0,1.2,0.2,1.7c0,0.1,0.2,0.2,0.3,0.1c0.4-0.5,0.8-0.9,1.2-1.2c0.1,0.2,0.2,0.4,0.4,0.5
			c0.2,0.1,0.3,0.4,0.4,0.8c0,0.1,0,0.1,0.1,0.2c0.4,0,1.2-0.9,1.4-1.4c0.5,0.3,0.7,0.6,1,1.1c0.1,0.2,0.2,0.1,0.3-0.1
			c0.1-0.6,0.2-1.1,0.2-1.7c0.6,0.2,1.4,0.3,2.2,0.1c0.2,0,0.1-0.2,0-0.2c-0.1-0.3-0.2-0.6-0.3-0.9c0-0.3,0-0.5-0.1-0.7
			c0.5,0.2,1,0.3,1.5,0.1c0.1-0.7-0.1-1.4-0.5-2c0.8,0.2,1.6,0.2,2.2-0.3c0.1-0.1,0.1-0.2-0.1-0.3c-0.3-0.2-0.5-0.5-0.5-1.1
			c-0.1-0.6-0.4-1-0.8-1.2c1.1-0.4,1.6-1.1,1.9-1.8c0.1-0.2,0-0.2-0.2-0.2c-0.5,0-1.1-0.1-1.7-0.1c1-1.1,1.4-2.3,1.4-3.5
			c0-0.3-0.1-0.3-0.2-0.2c-0.2,0.2-0.4,0.3-0.8,0.3c-0.5,0-1,0.1-1.6,0.3c0-0.1,0-0.2-0.1-0.3c0.1-0.3,0.3-0.6,0.4-0.9
			c0.2-0.1,0.2-0.3,0.2-0.5c0.6-1,1.2-2.1,1.9-3.1c0.1-0.2-0.1-0.4-0.4-0.2c-0.1,0.1-0.3,0.2-0.4,0.3c-0.3,0.2-0.6,0.3-1,0.3
			c-0.6,0.1-1,0.4-1,0.9c-0.7-0.4-1.3-0.2-1.9,0.7c0-0.6-0.1-1.1-0.7-1c0.2-0.4,0-0.7-0.4-0.8c-0.4-0.6-1.1-1.1-1.5-1.7
			C320.1,110.4,320.1,110.4,320,110.4L320,110.4z"/>
	</g>
	<g transform="rotate(-2.2 -55532.8 156275.8)">
		<g id="a_1_">
			<path class="st4" d="M309.6,87.1c0,0-0.1,0-0.2,0.1c-0.4,0.6-0.8,1.1-1.2,1.8c-0.5,0.2-0.6,0.4-0.4,0.8c-0.6,0-0.7,0.5-0.7,1.1
				c-0.6-0.9-1.3-1.1-2-0.7c0-0.5-0.5-0.8-1.1-0.9c-0.4,0-0.8-0.1-1-0.3c-0.1-0.1-0.3-0.1-0.4-0.2c-0.3-0.2-0.5,0-0.4,0.2
				c0.7,1,1.3,2,2,3c0,0.2,0,0.4,0.2,0.5c0.1,0.3,0.2,0.6,0.4,0.9c0,0.1,0,0.2-0.1,0.3c-0.5-0.2-1.1-0.2-1.6-0.3
				c-0.4,0-0.7-0.1-0.9-0.3c-0.1-0.1-0.2-0.1-0.2,0.2c0,1.3,0.5,2.4,1.6,3.5c-0.5,0-1.1,0.1-1.6,0.1c-0.2,0-0.2,0.1-0.2,0.3
				c0.3,0.7,0.9,1.3,2,1.7c-0.5,0.3-0.7,0.7-0.8,1.3c0,0.5-0.1,0.9-0.5,1.1c-0.1,0.1-0.2,0.2,0,0.3c0.6,0.4,1.4,0.4,2.1,0.2
				c-0.3,0.7-0.5,1.3-0.4,2c0.5,0.1,1,0,1.4-0.2c-0.1,0.1-0.1,0.4-0.1,0.7c0,0.3-0.1,0.5-0.2,0.8c-0.1,0.1-0.1,0.2,0,0.2
				c0.8,0.2,1.5,0.1,2.2-0.2c0,0.6,0,1.2,0.2,1.7c0,0.1,0.2,0.2,0.3,0.1c0.3-0.5,0.7-1,1.2-1.3c0.1,0.2,0.2,0.4,0.4,0.5
				c0.2,0.1,0.4,0.4,0.4,0.8c0,0.1,0,0.1,0.1,0.2c0.4,0,1.2-0.9,1.3-1.5c0.5,0.3,0.7,0.6,1.1,1.1c0.1,0.2,0.2,0.1,0.3-0.1
				c0.1-0.6,0.1-1.1,0.1-1.7c0.6,0.2,1.4,0.3,2.2,0c0.2-0.1,0.1-0.2,0-0.2c-0.2-0.3-0.3-0.6-0.3-0.9c0-0.3-0.1-0.5-0.1-0.7
				c0.5,0.1,1,0.2,1.5,0.1c0-0.7-0.2-1.4-0.6-2c0.8,0.2,1.6,0.1,2.1-0.3c0.1-0.1,0.1-0.2-0.1-0.2c-0.3-0.2-0.5-0.5-0.5-1.1
				c-0.1-0.6-0.4-1-0.9-1.2c1.1-0.5,1.6-1.2,1.9-1.9c0-0.2,0-0.2-0.2-0.2c-0.5,0-1.1,0-1.7,0c1-1.2,1.3-2.3,1.3-3.6
				c0-0.3-0.1-0.3-0.2-0.2c-0.2,0.2-0.4,0.3-0.8,0.4c-0.5,0.1-1,0.1-1.5,0.4c0-0.1-0.1-0.2-0.1-0.3c0.1-0.3,0.2-0.6,0.3-0.9
				c0.2-0.1,0.2-0.3,0.2-0.5c0.6-1.1,1.1-2.1,1.7-3.2c0.1-0.2-0.1-0.4-0.4-0.2c-0.1,0.1-0.3,0.2-0.4,0.3c-0.3,0.2-0.6,0.3-1,0.4
				c-0.6,0.2-1,0.4-1,1c-0.7-0.4-1.3-0.1-1.9,0.8c0-0.6-0.1-1.1-0.8-1c0.2-0.4,0-0.7-0.5-0.8c-0.5-0.6-1.1-1.1-1.6-1.6
				C309.7,87.1,309.6,87.1,309.6,87.1L309.6,87.1z"/>
		</g>
	</g>
	<g transform="rotate(2.2 459865.8 156275.8)">
		<g id="a_2_">
			<path class="st4" d="M330.5,87.2c0,0-0.1,0-0.2,0.1c-0.5,0.6-0.9,1.1-1.4,1.7c-0.5,0.1-0.6,0.4-0.4,0.8c-0.6-0.1-0.7,0.4-0.8,1
				c-0.6-0.9-1.2-1.2-1.9-0.8c0-0.5-0.4-0.8-1-1c-0.4,0-0.7-0.2-1-0.4c-0.1-0.1-0.3-0.2-0.4-0.3c-0.3-0.2-0.5,0-0.4,0.2
				c0.6,1.1,1.2,2.1,1.8,3.2c0,0.2,0,0.4,0.2,0.5c0.1,0.3,0.2,0.6,0.3,1c0,0.1-0.1,0.2-0.1,0.3c-0.5-0.3-1-0.3-1.6-0.4
				c-0.4,0-0.7-0.1-0.8-0.4c-0.1-0.2-0.2-0.1-0.2,0.2c-0.1,1.3,0.3,2.4,1.3,3.6c-0.5,0-1.1,0-1.6,0c-0.2,0-0.2,0.1-0.2,0.2
				c0.3,0.7,0.8,1.4,1.9,1.9c-0.5,0.2-0.8,0.6-0.9,1.2c0,0.5-0.2,0.9-0.5,1.1c-0.1,0.1-0.2,0.1-0.1,0.2c0.6,0.5,1.3,0.5,2.1,0.3
				c-0.4,0.6-0.6,1.3-0.5,2c0.5,0.2,1,0.1,1.5-0.1c-0.1,0.1-0.1,0.4-0.2,0.7c0,0.3-0.1,0.5-0.3,0.8c-0.1,0.1-0.2,0.2,0,0.2
				c0.8,0.2,1.5,0.2,2.2,0c0,0.6,0,1.2,0.1,1.7c0,0.1,0.2,0.2,0.3,0.1c0.4-0.5,0.8-0.9,1.3-1.2c0.1,0.2,0.2,0.4,0.3,0.5
				c0.2,0.1,0.3,0.4,0.3,0.8c0,0.1,0,0.1,0.1,0.2c0.4,0,1.3-0.9,1.4-1.4c0.5,0.3,0.7,0.6,1,1.1c0.1,0.2,0.2,0.1,0.3,0
				c0.2-0.6,0.2-1.1,0.2-1.7c0.6,0.3,1.4,0.4,2.2,0.2c0.2,0,0.1-0.2,0-0.2c-0.1-0.3-0.2-0.6-0.2-0.9c0-0.3,0-0.5-0.1-0.7
				c0.5,0.2,0.9,0.3,1.4,0.2c0.1-0.7-0.1-1.4-0.4-2c0.8,0.2,1.5,0.2,2.2-0.2c0.1-0.1,0.1-0.2,0-0.3c-0.3-0.2-0.5-0.6-0.5-1.1
				c0-0.6-0.3-1-0.8-1.3c1.2-0.4,1.7-1,2-1.7c0.1-0.2,0-0.2-0.2-0.3c-0.5,0-1.1-0.1-1.7-0.1c1.1-1.1,1.5-2.2,1.6-3.5
				c0-0.3-0.1-0.3-0.2-0.2c-0.2,0.2-0.4,0.3-0.8,0.3c-0.5,0-1,0-1.6,0.2c0-0.1,0-0.2-0.1-0.3c0.1-0.3,0.3-0.6,0.4-0.9
				c0.2-0.1,0.3-0.3,0.2-0.5c0.7-1,1.3-2,2-3c0.1-0.2-0.1-0.4-0.4-0.2c-0.1,0.1-0.3,0.1-0.4,0.2c-0.3,0.2-0.6,0.3-1,0.3
				c-0.6,0.1-1,0.4-1,0.9c-0.7-0.4-1.3-0.2-2,0.7c0-0.6-0.1-1.1-0.7-1.1c0.2-0.4,0.1-0.7-0.4-0.8c-0.4-0.6-1-1.2-1.5-1.8
				C330.5,87.2,330.5,87.2,330.5,87.2L330.5,87.2z"/>
		</g>
	</g>
</g>
<path class="st0" d="M-159.1,0.2L-159.1,0.2l-0.1,0l0,0.1c0,0,0.1,0,0.1,0L-159.1,0.2L-159.1,0.2z"/>
<path class="st4" d="M-159.2,0.2C-159.2,0.2-159.2,0.2-159.2,0.2C-159.2,0.2-159.2,0.2-159.2,0.2C-159.2,0.2-159.2,0.2-159.2,0.2
	C-159.2,0.2-159.2,0.2-159.2,0.2C-159.2,0.2-159.2,0.2-159.2,0.2L-159.2,0.2C-159.1,0.2-159.1,0.2-159.2,0.2L-159.2,0.2
	C-159.1,0.2-159.1,0.2-159.2,0.2C-159.1,0.2-159.1,0.2-159.2,0.2C-159.1,0.2-159.1,0.2-159.2,0.2C-159.1,0.2-159.1,0.2-159.2,0.2
	C-159.1,0.2-159.1,0.2-159.2,0.2C-159.1,0.2-159.1,0.2-159.2,0.2C-159.1,0.2-159.1,0.2-159.2,0.2L-159.2,0.2L-159.2,0.2
	C-159.1,0.2-159.1,0.2-159.2,0.2C-159.1,0.2-159.1,0.2-159.2,0.2C-159.1,0.2-159.1,0.2-159.2,0.2C-159.1,0.2-159.1,0.2-159.2,0.2
	C-159.2,0.2-159.2,0.2-159.2,0.2C-159.2,0.2-159.2,0.2-159.2,0.2C-159.2,0.2-159.2,0.2-159.2,0.2C-159.1,0.2-159.1,0.2-159.2,0.2
	C-159.2,0.2-159.2,0.2-159.2,0.2C-159.2,0.2-159.2,0.2-159.2,0.2C-159.2,0.2-159.2,0.2-159.2,0.2C-159.2,0.2-159.2,0.2-159.2,0.2
	L-159.2,0.2C-159.2,0.2-159.2,0.2-159.2,0.2C-159.2,0.2-159.2,0.2-159.2,0.2C-159.2,0.3-159.2,0.3-159.2,0.2L-159.2,0.2
	C-159.2,0.3-159.2,0.3-159.2,0.2C-159.2,0.3-159.2,0.3-159.2,0.2C-159.1,0.3-159.1,0.3-159.2,0.2L-159.2,0.2
	C-159.1,0.3-159.1,0.3-159.2,0.2L-159.2,0.2C-159.1,0.3-159.1,0.3-159.2,0.2L-159.2,0.2C-159.1,0.3-159.1,0.3-159.2,0.2
	C-159.1,0.3-159.1,0.3-159.2,0.2C-159.1,0.3-159.1,0.3-159.2,0.2C-159.1,0.3-159.1,0.3-159.2,0.2C-159.1,0.3-159.1,0.3-159.2,0.2
	C-159.1,0.3-159.1,0.3-159.2,0.2C-159.1,0.3-159.1,0.3-159.2,0.2C-159.1,0.3-159.1,0.3-159.2,0.2C-159.1,0.3-159.1,0.3-159.2,0.2
	C-159.1,0.3-159.1,0.3-159.2,0.2C-159.1,0.3-159.1,0.3-159.2,0.2C-159.1,0.3-159.1,0.3-159.2,0.2L-159.2,0.2
	C-159.1,0.3-159.1,0.3-159.2,0.2L-159.2,0.2C-159.1,0.3-159.1,0.3-159.2,0.2C-159.1,0.3-159.1,0.3-159.2,0.2
	C-159.1,0.3-159.1,0.3-159.2,0.2C-159.1,0.3-159.1,0.3-159.2,0.2C-159.1,0.3-159.1,0.3-159.2,0.2L-159.2,0.2L-159.2,0.2
	C-159.1,0.3-159.1,0.3-159.2,0.2C-159.1,0.3-159.1,0.3-159.2,0.2C-159.1,0.3-159.1,0.3-159.2,0.2C-159.1,0.3-159.1,0.3-159.2,0.2
	C-159.1,0.3-159.1,0.3-159.2,0.2C-159.1,0.3-159.1,0.3-159.2,0.2C-159.1,0.3-159.1,0.3-159.2,0.2C-159.1,0.3-159.1,0.3-159.2,0.2
	C-159.1,0.3-159.1,0.3-159.2,0.2C-159.1,0.3-159.1,0.3-159.2,0.2C-159.1,0.3-159.1,0.3-159.2,0.2C-159.1,0.3-159.1,0.3-159.2,0.2
	L-159.2,0.2C-159.1,0.3-159.1,0.3-159.2,0.2C-159.1,0.3-159.1,0.3-159.2,0.2L-159.2,0.2C-159.1,0.3-159.1,0.3-159.2,0.2
	C-159.1,0.3-159.1,0.3-159.2,0.2C-159.1,0.3-159.1,0.3-159.2,0.2C-159.1,0.3-159.1,0.3-159.2,0.2C-159.1,0.3-159.1,0.3-159.2,0.2
	C-159.1,0.3-159.1,0.3-159.2,0.2C-159.1,0.3-159.1,0.3-159.2,0.2C-159.1,0.3-159.1,0.3-159.2,0.2C-159.1,0.3-159.1,0.3-159.2,0.2
	C-159.1,0.3-159.1,0.3-159.2,0.2L-159.2,0.2C-159.1,0.3-159.1,0.3-159.2,0.2C-159.1,0.3-159.1,0.3-159.2,0.2
	C-159.1,0.3-159.1,0.3-159.2,0.2C-159.2,0.3-159.2,0.3-159.2,0.2C-159.2,0.3-159.2,0.3-159.2,0.2C-159.2,0.3-159.2,0.3-159.2,0.2
	C-159.2,0.3-159.2,0.3-159.2,0.2L-159.2,0.2C-159.2,0.3-159.2,0.3-159.2,0.2C-159.1,0.3-159.1,0.3-159.2,0.2
	C-159.1,0.3-159.1,0.3-159.2,0.2L-159.2,0.2L-159.2,0.2C-159.1,0.3-159.1,0.3-159.2,0.2C-159.1,0.3-159.1,0.3-159.2,0.2
	C-159.1,0.3-159.1,0.3-159.2,0.2C-159.2,0.3-159.2,0.3-159.2,0.2C-159.2,0.3-159.2,0.3-159.2,0.2L-159.2,0.2L-159.2,0.2
	C-159.2,0.3-159.2,0.3-159.2,0.2C-159.2,0.3-159.2,0.3-159.2,0.2C-159.2,0.3-159.2,0.3-159.2,0.2C-159.2,0.3-159.2,0.3-159.2,0.2
	C-159.2,0.3-159.2,0.3-159.2,0.2L-159.2,0.2C-159.2,0.3-159.2,0.3-159.2,0.2L-159.2,0.2L-159.2,0.2C-159.2,0.3-159.2,0.3-159.2,0.2
	C-159.2,0.3-159.2,0.3-159.2,0.2L-159.2,0.2C-159.2,0.3-159.2,0.3-159.2,0.2L-159.2,0.2C-159.2,0.3-159.2,0.3-159.2,0.2
	C-159.2,0.3-159.2,0.3-159.2,0.2L-159.2,0.2C-159.2,0.3-159.2,0.3-159.2,0.2L-159.2,0.2C-159.2,0.3-159.2,0.3-159.2,0.2
	C-159.2,0.3-159.2,0.3-159.2,0.2C-159.2,0.3-159.2,0.3-159.2,0.2L-159.2,0.2L-159.2,0.2C-159.2,0.3-159.2,0.3-159.2,0.2L-159.2,0.2
	C-159.2,0.3-159.2,0.3-159.2,0.2L-159.2,0.2C-159.2,0.3-159.2,0.3-159.2,0.2C-159.2,0.3-159.2,0.3-159.2,0.2
	C-159.2,0.3-159.2,0.3-159.2,0.2C-159.2,0.3-159.2,0.3-159.2,0.2C-159.2,0.3-159.2,0.3-159.2,0.2C-159.2,0.3-159.2,0.3-159.2,0.2
	C-159.2,0.3-159.2,0.3-159.2,0.2C-159.2,0.3-159.2,0.3-159.2,0.2C-159.2,0.3-159.2,0.3-159.2,0.2C-159.2,0.3-159.2,0.3-159.2,0.2
	C-159.2,0.3-159.2,0.3-159.2,0.2C-159.2,0.3-159.2,0.3-159.2,0.2C-159.2,0.3-159.2,0.3-159.2,0.2C-159.2,0.3-159.2,0.3-159.2,0.2
	C-159.2,0.3-159.2,0.3-159.2,0.2C-159.2,0.3-159.2,0.3-159.2,0.2C-159.2,0.3-159.2,0.3-159.2,0.2L-159.2,0.2
	C-159.2,0.3-159.2,0.3-159.2,0.2L-159.2,0.2C-159.2,0.3-159.2,0.3-159.2,0.2C-159.2,0.3-159.2,0.3-159.2,0.2
	C-159.2,0.3-159.2,0.3-159.2,0.2C-159.2,0.3-159.2,0.3-159.2,0.2C-159.2,0.3-159.2,0.3-159.2,0.2C-159.2,0.3-159.2,0.3-159.2,0.2
	C-159.2,0.3-159.2,0.3-159.2,0.2C-159.2,0.3-159.2,0.3-159.2,0.2C-159.2,0.3-159.2,0.3-159.2,0.2C-159.2,0.2-159.2,0.2-159.2,0.2
	C-159.2,0.2-159.2,0.2-159.2,0.2C-159.2,0.3-159.2,0.2-159.2,0.2C-159.2,0.2-159.2,0.2-159.2,0.2C-159.2,0.2-159.2,0.2-159.2,0.2
	C-159.2,0.2-159.2,0.2-159.2,0.2C-159.2,0.2-159.2,0.2-159.2,0.2C-159.2,0.2-159.2,0.2-159.2,0.2L-159.2,0.2
	C-159.2,0.2-159.2,0.2-159.2,0.2C-159.2,0.2-159.2,0.2-159.2,0.2C-159.2,0.2-159.2,0.2-159.2,0.2C-159.2,0.2-159.2,0.2-159.2,0.2
	L-159.2,0.2z"/>
<path class="st3" d="M-159,0.4l0-0.1l0-0.1l-0.1,0L-159,0.4C-159.1,0.3-159.1,0.4-159,0.4z"/>
<path class="st1" d="M-159.1,0.3C-159.1,0.3-159,0.3-159.1,0.3L-159.1,0.3C-159,0.3-159.1,0.3-159.1,0.3L-159.1,0.3z"/>
<path class="st2" d="M-159,0.3L-159,0.3C-159,0.3-159.1,0.3-159,0.3L-159,0.3C-159.1,0.3-159,0.3-159,0.3L-159,0.3L-159,0.3z"/>
<path d="M-159.1,0.3C-159.1,0.3-159.1,0.3-159.1,0.3C-159.1,0.3-159.1,0.3-159.1,0.3L-159.1,0.3C-159.1,0.3-159.1,0.3-159.1,0.3
	C-159.1,0.3-159.1,0.3-159.1,0.3C-159.1,0.3-159.1,0.3-159.1,0.3C-159.1,0.3-159.1,0.3-159.1,0.3L-159.1,0.3
	C-159.1,0.3-159.1,0.3-159.1,0.3C-159.1,0.3-159.1,0.3-159.1,0.3L-159.1,0.3C-159.1,0.3-159.1,0.3-159.1,0.3L-159.1,0.3
	C-159.1,0.3-159.1,0.3-159.1,0.3C-159.1,0.3-159.1,0.3-159.1,0.3L-159.1,0.3C-159.1,0.3-159.1,0.3-159.1,0.3
	C-159.1,0.3-159.1,0.3-159.1,0.3C-159.1,0.3-159.1,0.3-159.1,0.3C-159.1,0.3-159.1,0.3-159.1,0.3C-159.1,0.3-159.1,0.3-159.1,0.3
	L-159.1,0.3L-159.1,0.3L-159.1,0.3C-159.1,0.3-159.1,0.3-159.1,0.3C-159.1,0.3-159.1,0.3-159.1,0.3L-159.1,0.3
	C-159,0.3-159,0.3-159.1,0.3C-159,0.3-159,0.3-159.1,0.3C-159,0.3-159,0.3-159.1,0.3C-159,0.3-159,0.3-159.1,0.3
	C-159,0.3-159,0.3-159.1,0.3C-159,0.3-159,0.3-159.1,0.3C-159,0.3-159,0.3-159.1,0.3C-159,0.3-159,0.3-159.1,0.3
	C-159,0.3-159,0.3-159.1,0.3L-159.1,0.3L-159.1,0.3L-159.1,0.3C-159,0.3-159,0.3-159.1,0.3L-159.1,0.3C-159,0.3-159,0.3-159.1,0.3
	L-159.1,0.3C-159,0.3-159,0.3-159.1,0.3L-159.1,0.3L-159.1,0.3C-159,0.3-159,0.3-159.1,0.3C-159,0.3-159,0.3-159.1,0.3
	C-159,0.3-159,0.3-159.1,0.3C-159,0.3-159,0.3-159.1,0.3C-159,0.3-159,0.3-159.1,0.3L-159.1,0.3C-159,0.3-159,0.3-159.1,0.3
	L-159.1,0.3C-159,0.3-159,0.3-159.1,0.3C-159,0.3-159,0.3-159.1,0.3C-159,0.3-159,0.3-159.1,0.3L-159.1,0.3
	C-159,0.3-159,0.3-159.1,0.3C-159,0.3-159,0.3-159.1,0.3L-159.1,0.3C-159.1,0.3-159.1,0.3-159.1,0.3C-159.1,0.3-159.1,0.3-159.1,0.3
	C-159.1,0.3-159.1,0.3-159.1,0.3C-159.1,0.3-159.1,0.3-159.1,0.3C-159.1,0.3-159.1,0.3-159.1,0.3C-159.1,0.3-159.1,0.3-159.1,0.3
	L-159.1,0.3C-159.1,0.3-159.1,0.3-159.1,0.3L-159.1,0.3C-159.1,0.3-159.1,0.3-159.1,0.3C-159.1,0.3-159.1,0.3-159.1,0.3
	C-159.1,0.3-159.1,0.3-159.1,0.3C-159.1,0.3-159.1,0.3-159.1,0.3C-159.1,0.3-159.1,0.3-159.1,0.3C-159.1,0.3-159.1,0.3-159.1,0.3
	C-159.1,0.3-159.1,0.3-159.1,0.3C-159.1,0.3-159.1,0.3-159.1,0.3C-159.1,0.3-159.1,0.3-159.1,0.3C-159.1,0.3-159.1,0.3-159.1,0.3
	C-159.1,0.3-159.1,0.3-159.1,0.3C-159.1,0.3-159.1,0.3-159.1,0.3C-159.1,0.3-159.1,0.3-159.1,0.3L-159.1,0.3
	C-159.1,0.3-159.1,0.3-159.1,0.3L-159.1,0.3L-159.1,0.3C-159.1,0.3-159.1,0.3-159.1,0.3C-159.1,0.3-159.1,0.3-159.1,0.3
	C-159.1,0.3-159.1,0.3-159.1,0.3L-159.1,0.3C-159.1,0.3-159.1,0.3-159.1,0.3L-159.1,0.3C-159.1,0.3-159.1,0.3-159.1,0.3
	C-159.1,0.3-159.1,0.3-159.1,0.3C-159.1,0.3-159.1,0.3-159.1,0.3C-159.1,0.3-159.1,0.3-159.1,0.3C-159.1,0.3-159.1,0.3-159.1,0.3
	L-159.1,0.3L-159.1,0.3z"/>
<path class="st4" d="M-159,0.2L-159,0.2L-159,0.2L-159,0.2L-159,0.2L-159,0.2L-159,0.2L-159,0.2L-159,0.2L-159,0.2L-159,0.2
	L-159,0.2L-159,0.2L-159,0.2L-159,0.2L-159,0.2L-159,0.2L-159,0.2L-159,0.2L-159,0.2L-159,0.2L-159,0.2L-159,0.2L-159,0.2L-159,0.2z
	"/>
</svg>
