<?xml version="1.0" encoding="utf-8"?>
<!-- Generator: Adobe Illustrator 24.1.1, SVG Export Plug-In . SVG Version: 6.00 Build 0)  -->
<svg version="1.1" id="flag-icons-rs" xmlns="http://www.w3.org/2000/svg" xmlns:xlink="http://www.w3.org/1999/xlink" x="0px"
	 y="0px" viewBox="0 0 640 480" style="enable-background:new 0 0 640 480;" xml:space="preserve">
<style type="text/css">
	.st0{clip-path:url(#SVGID_2_);}
	.st1{fill:#FFFFFF;}
	.st2{fill:#0C4076;}
	.st3{fill:#C6363C;}
	.st4{fill:#EDB92E;}
	.st5{fill:#C6363C;stroke:#FFFFFF;stroke-width:3;stroke-miterlimit:10;}
</style>
<g>
	<defs>
		<rect id="SVGID_1_" x="-38.5" y="-45.9" width="640" height="480"/>
	</defs>
	<clipPath id="SVGID_2_">
		<use xlink:href="#SVGID_1_"  style="overflow:visible;"/>
	</clipPath>
	<g class="st0">
		<path class="st1" d="M-70.5-45.9h720v480h-720V-45.9z"/>
		<path class="st2" d="M-70.5-45.9h720v320h-720V-45.9z"/>
		<path class="st3" d="M-70.2-45.9h720v160h-720V-45.9z"/>
		<g id="b-2_1_">
			<path class="st4" d="M250.2,67.7c-1.6-0.5-1.5,1.5-0.8,2.9c0.5,1.2,0.4,2.6-0.3,3.8c-0.1,0.3-0.2,0.5-0.3,0.7l-0.3,0.7
				c-0.1-0.2-0.1-0.5-0.1-0.8c0.2-1,0.3-2,0.2-3c0-1.3-1.3-1.8-1.4-1.1l0,0.1l-0.2-0.1c-0.3,0.3-0.5,0.7-0.6,1.1
				c-0.6,1.7-1.2,1.8-2.5,1.8s-2.1,2.1-2.3,3.2c0,0.6,0.3,0.8,0.5,1.4c0.1,0.6,0,1.2-0.1,1.8c-0.1,0.7-0.3,1.4-0.7,2
				c-0.4,0.5-0.3,1-0.4,1.3c0.4,0.1,0.9,0.1,1.3,0l0.1,0.1c0.5,0.1,2.5-2.8,3.7-2.4l0,0c0,0.1,0.1,0.1,0.1,0.2
				c0.3,0.6,0.8,1.1,1.5,1.4c0.6,0.1,1.2-0.5,1.8-1.8c0.5-1.3,1.2-2.6,2.1-3.6c0.3-0.3,0.4-0.6,0.4-0.9l-0.2-0.1c0,0,0,0,0,0
				c1.4-1,2-2.7,2.5-4.2c0.3-0.8,0.8-1.4,1.3-1.9l0,0c0.8,0.2,1.6,0.7,2,1.4c0.2,0.3,1.1-0.3,1.4-1.1c1-2.3-1.5-3.1-3.8-3l0,0
				c0.1-0.1,0.2-0.2,0.4-0.3c0.4-0.3,0.8-0.6,1.2-0.9c5.7-10.2,10.4-17,6.5-20.3c-5.2-4.6-14.2-8.7-23.8-11l2.2,5.4
				c4.5,1.7,8.7,3.5,11.2,5.4c4.7,3.6,4.6,4.6-2.3,14.4c-0.2,0.3-0.7,1.1-0.5,1.5c0.3,0.6,1.2,3.8,0.2,5.9L250.2,67.7z"/>
			<path class="st4" d="M127.3,67.8c1.4-0.5,1.4,1.5,0.7,2.9c-0.4,1.2-0.3,2.6,0.3,3.8c0.1,0.3,0.2,0.5,0.3,0.7l0.3,0.7
				c0.1-0.2,0.1-0.5,0.1-0.8c-0.2-1-0.2-2-0.1-3c0-1.3,1.2-1.8,1.3-1.1l0,0.1l0.2-0.1c0.2,0.3,0.4,0.7,0.6,1.1
				c0.6,1.7,1.1,1.8,2.3,1.8s2,2.1,2.1,3.2c0,0.6-0.3,0.8-0.5,1.4c-0.1,0.6,0,1.2,0.1,1.8c0.1,0.7,0.3,1.4,0.7,2
				c0.3,0.5,0.2,1,0.3,1.3c-0.4,0.1-0.8,0.1-1.2,0l-0.1,0.1c-0.5,0.1-2.3-2.8-3.4-2.4l0,0c0,0.1-0.1,0.1-0.1,0.2
				c-0.3,0.6-0.7,1.1-1.4,1.4c-0.6,0.1-1.1-0.5-1.7-1.8c-0.4-1.3-1.1-2.6-2-3.6c-0.3-0.3-0.4-0.6-0.4-0.9l0.2-0.1c0,0,0,0,0,0
				c-1.3-1-1.8-2.7-2.3-4.2c-0.3-0.8-0.8-1.4-1.2-1.9l0,0c-0.8,0.2-1.4,0.7-1.9,1.4c-0.1,0.3-1-0.3-1.3-1.1c-1-2.3,1.4-3.1,3.5-3
				l0,0c-0.1-0.1-0.2-0.2-0.3-0.3c-0.4-0.3-0.7-0.6-1.1-0.9c-5.3-10.2-9.5-17-6-20.4c4.8-4.6,13-8.7,21.9-11l-2,5.4
				c-4.1,1.7-8,3.5-10.3,5.4c-4.3,3.6-4.3,4.6,2.1,14.4c0.2,0.3,0.6,1.1,0.5,1.5c-0.3,0.6-1.1,3.8-0.1,5.9L127.3,67.8z"/>
			<path class="st4" d="M177.1,29.4"/>
			<path class="st4" d="M132.5,94.3c-3.2,0.4-2.7,3.5,0,3.2l3.5,13.5c-1.1,0.2-1.6,1-1.6,1.6c0,0.9,0.7,1.6,1.6,1.6
				c0.3,0.1,0.6,0.1,0.9,0.2c33.1,2.8,66.4,2.8,99.5,0c0.3,0,0.6,0,0.9-0.1c0.9-0.1,1.5-0.8,1.6-1.6c0-0.7-0.5-1.3-1.6-1.5l3.7-13.7
				c2.7,0.3,3.1-2.8,0-3.2l0.3,0.1c1.5-3.1,3.4-6.1,5.5-8.9l-0.5,1.4c1.3-1.8,2-4,2-6.3l-0.2,0.1l-2-0.3c-3.7,9.4-7.1,9.6-7.8,0.8
				c0.9-0.3,0.5-1.8,1.5-1.2c0.5,0.3,1.1-0.5,0.7-1.1c-0.8-0.7-2-0.7-2.7,0.1c0,0.1-0.1,0.1-0.1,0.2c-0.4-1.4-1.6-2.1-2.9-1.5
				c-0.5,0.3-0.4,1.3,0.2,1.3c1-0.1,0.5,0.9,0.9,1.6c-6.7,8.8-10.1,7.7-9.3-3.9c-1.7-0.3-3.4-0.8-5.1-1.3
				c-6.1,12.5-10.5,13-14.1,1.8c0.8-0.5,0.5-2,1.6-1.6c0.7,0.3,1.2-0.8,0.6-1.3c-1.3-1.1-2.7-0.7-3.6,0.7c-0.7-1.6-2.1-2.2-3.5-1.2
				c-0.6,0.4-0.3,1.6,0.4,1.4c1.2-0.4,0.7,1.3,1.6,1.9c-2.7,10.5-16.4,11.3-14.2-4.4c-1.3,0-2.4,0-3.5,0.1l-3.6-0.1
				c2.2,15.5-11.5,14.9-14.2,4.3c0.9-0.5,0.3-2.1,1.6-1.8c0.6,0.2,1.1-1.1,0.4-1.4c-1.4-0.9-2.8-0.4-3.5,1.2
				c-0.9-1.4-2.3-1.8-3.6-0.8c-0.5,0.5,0,1.6,0.5,1.3c1.2-0.4,1,1.1,1.7,1.6c-3.6,11.3-8,10.7-14.1-1.8c-1.7,0.5-3.4,0.9-5.1,1.2
				c0.9,11.6-2.7,12.6-9.3,3.8c0.3-0.7,0-1.6,0.9-1.5c0.5,0,0.8-1.1,0.2-1.3c-1-0.5-2.2,0-2.7,1c-0.1,0.2-0.1,0.4-0.2,0.5
				c-0.7-0.9-1.9-1-2.8-0.3c0,0-0.1,0.1-0.1,0.1c-0.4,0.5,0.2,1.3,0.7,1.1c1-0.5,0.6,0.8,1.5,1.2c-0.6,8.8-4.1,8.6-7.8-0.7l-2,0.4
				c0,2.2,0.7,4.4,2,6.3"/>
			<path class="st4" d="M177.4,29.4c0.3,6.5,1.4,12.9-0.4,20.9c-0.8,3.4-2,5.3-0.8,6.1c2.6,1.5,4,2.8,4,3.7l0,0.3
				c-1,0.4-0.6,1.7,0.4,3.2c0.9,1,1.8,1.9,2.8,2.7c0.7,0.8,0.8,1.5,1.1,1.7l0.2,0.2c-0.4,0.3-0.8,0.7-1.1,1.1l-0.2-0.1
				c-0.2-0.3-0.9-0.4-1.7-1.1s-1.8-2.3-2.7-2.8c-1.9-1.3-3.6-1.7-3.2,1.2c0.2,0.6,0.1,1.3-0.2,1.9c-0.2,0.3-0.4,0.2-1.3,0.8l0.1,0.1
				c-0.5,0.3-0.9,0.7-1.3,1.2c-0.2,0.4,0,0.9,0,1.4s-0.2,1,0,1.4c0.3,0.5,0.7,0.9,1.2,1.2c0.9,0.5,1,0.4,1.3,0.8
				c0.3,0.6,0.4,1.2,0.2,1.9c-0.4,2.8,1.3,2.4,3.2,1.2c1-0.9,1.9-1.9,2.7-2.9c0.8-0.7,1.5-0.8,1.7-1.1l0.2,0c0.7,1.1,2,1.8,3.4,1.8
				c1.4,0,2.7-0.7,3.5-1.8l0.2,0.1c0.2,0.3,0.9,0.4,1.7,1.1c0.8,1,1.7,2,2.7,2.9c1.9,1.2,3.6,1.6,3.2-1.2c-0.2-0.6-0.1-1.3,0.2-1.9
				c0.3-0.4,0.4-0.2,1.3-0.8c0.5-0.3,0.9-0.7,1.2-1.2c0.2-0.4,0-0.9,0-1.4s0.2-1,0-1.4c-0.4-0.5-0.8-0.9-1.3-1.2l0.1-0.1
				c-0.9-0.5-1.1-0.4-1.3-0.8c-0.3-0.6-0.4-1.2-0.2-1.9c0.4-2.8-1.3-2.5-3.2-1.2c-0.9,0.5-1.9,2.1-2.7,2.8s-1.5,0.8-1.7,1.1l-0.2,0
				c-0.3-0.4-0.7-0.7-1.1-1l0.2-0.3c0.3-0.6,0.6-1.2,1.1-1.7c0.8-0.8,2.2-1.8,2.8-2.7c1-1.7,1.5-3.2-0.1-3.3l0-0.3
				c0.1-0.9,1.5-2.2,4-3.6c1.2-0.6,0-2.7-0.8-6.1c-1.7-8-0.7-14.4-0.4-20.9l0.2,0c17.6-0.4,28.1,2.3,30.8,7.5
				c2.2,4.2-1.6,11.2-7.3,19.2c-0.7,1-0.6,0.9,0,1.6c0.9,1.1,1.8,2.9,1.4,4.5l-0.1,0c-1.5-0.1-1.4,1.7-0.7,3.7
				c0.4,1.1,1.5,2.3,2,3.3c0.2,0.4,0.3,0.8,0.4,1.3l-0.1,0.1c-0.4,0.2-0.7,0.6-1.1,0.9l-0.1-0.1c-0.2-0.4-0.8-0.5-1.3-1.3
				c-0.5-1.1-1.2-2.2-1.9-3.2c-1.6-1.7-3.2-2.4-3.2,0.7c0.1,0.7-0.1,1.4-0.5,1.9c-0.3,0.3-0.5,0.2-1.3,0.5c-0.5,0.3-1,0.6-1.4,1.1
				c-0.2,0.5-0.4,1-0.4,1.5c0,0.5-0.3,0.9-0.1,1.4c0.2,0.5,0.6,1,1.1,1.3h0.1c0.4,0.3,0.7,0.5,1.1,0.8c0.1,0.6,0,1.2-0.2,1.8
				c-0.8,2.7,0.8,2.4,2.7,1.4c0.9-0.5,1.9-1.7,2.8-2.3s1.4-0.5,1.6-0.9l0.2-0.2c0.4,1.1,1.3,2,2.5,2.2c0.2,0,0.4,0.1,0.6,0.1
				c1.2,0,2.3-0.5,3.1-1.4l-0.1,0c0.2,0.1,0.5,0.4,0.7,0.8c0.4,0.6,0.6,1.9,1.1,2.5c0.7,0.9,1.3,1.4,1.8,1.3s0.9-0.7,1-2.3
				c0-0.6,0.3-1.2,0.8-1.6c0.3-0.3,0.3-0.2,1.1-0.7c0.5-0.3,0.9-0.6,1.3-1.1c0.3-0.3,0.4-0.7,0.5-1.1c0.2-0.5,0.4-0.9,0.4-1.3
				c0-0.4-0.2-0.8-0.4-1.1l0,0.1c-0.4-0.5-0.5-0.4-0.6-0.7c0-0.6,0.2-1.2,0.5-1.7c1.2-2.5-0.2-2.3-1.9-1.3c-0.6,0.3-1.1,0.6-1.6,1.1
				c-0.4,0.5-0.9,0.9-1.4,1.3c-0.9,0.6-1.4,0.6-1.6,0.9c-0.1,0.2-0.2,0.3-0.2,0.5l0,0c-0.1-0.4-0.3-0.8-0.6-1.1l0,0
				c0.2-0.3,0.5-0.8,1-1.2c0.9-0.8,2.3-1.6,3.2-2.5c1.6-1.9,2.5-3.6-0.1-3.6l-0.6-0.1c0.4-0.1,0.8-0.3,1.2-0.4
				c0.5-1.6,1.8-2.3,2.9-3.1c0.3-0.1,1.1-0.5,1.1-0.8l5.4-16.9c0.2-0.8,0.4-1.5,0.4-2.2c0.1-2-0.7-3.8-2-5.3
				c-8.4-9.4-39.8-10.4-45.4-10.4c0,0-15.3,0.2-15.6,0.2c0,0-34,0.9-41.7,10.3c-1.3,1.5-1.9,3.3-1.9,5.3c0,0.7,0.1,1.5,0.4,2.2
				l5,16.9c0,0.2,0.7,0.6,1,0.8c1,0.8,2.2,1.5,2.6,3.1c0.4,0.2,0.7,0.3,1.1,0.4l-0.6,0.1c-2.4-0.1-1.6,1.7-0.1,3.6
				c0.8,0.9,2.2,1.7,2.9,2.5c0.5,0.5,0.8,0.9,1,1.2l0,0c-0.2,0.3-0.4,0.7-0.5,1.1l0,0c-0.1-0.1-0.1-0.3-0.2-0.5
				c-0.1-0.3-0.7-0.3-1.5-0.9c-0.5-0.4-0.9-0.8-1.3-1.3c-0.4-0.4-0.9-0.8-1.5-1.1c-1.6-1-2.9-1.2-1.8,1.3c0.3,0.5,0.5,1.1,0.5,1.7
				c-0.1,0.3-0.2,0.2-0.6,0.7l0-0.1c-0.2,0.3-0.4,0.7-0.4,1.1c-0.1,0.4,0.2,0.8,0.3,1.3c0.1,0.4,0.3,0.8,0.5,1.1
				c0.3,0.4,0.7,0.8,1.2,1.1c0.7,0.4,0.7,0.3,1,0.7c0.4,0.4,0.7,1,0.7,1.6c0.1,1.6,0.5,2.1,0.9,2.3c0.4,0.1,1-0.4,1.7-1.3
				c0.4-0.6,0.6-1.9,1-2.5c0.2-0.4,0.5-0.6,0.6-0.8l-0.1,0c0.7,0.8,1.8,1.3,2.9,1.4c0.2,0,0.4,0,0.5-0.1c1.1-0.3,2-1.1,2.3-2.2
				l0.1,0.2c0.2,0.3,0.7,0.2,1.5,0.9c0.8,0.6,1.8,1.8,2.5,2.3c1.8,1,3.2,1.3,2.5-1.4c-0.2-0.6-0.2-1.2-0.1-1.8
				c0.3-0.3,0.6-0.6,1-0.8h0.1c0.4-0.3,0.8-0.8,1-1.3c0.1-0.5-0.1-0.9-0.1-1.4c0-0.5-0.1-1-0.3-1.5c-0.4-0.4-0.8-0.8-1.3-1.1
				c-0.7-0.4-0.9-0.2-1.2-0.5c-0.4-0.6-0.5-1.2-0.5-1.9c0-3.1-1.5-2.4-2.9-0.7c-0.7,1-1.3,2.1-1.8,3.2c-0.5,0.8-1,1-1.2,1.3
				l-0.1,0.1c-0.3-0.4-0.6-0.7-1-0.9l-0.1-0.1c0.1-0.4,0.2-0.9,0.4-1.3c0.5-1,1.5-2.3,1.8-3.3c0.6-2,0.7-3.8-0.7-3.7l-0.1,0
				c-0.4-1.6,0.4-3.3,1.3-4.5c0.6-0.8,0.6-0.6,0-1.6c-5.2-8-8.7-15.1-6.7-19.2c2.4-5.2,12.1-7.9,28.3-7.5"/>
			<path class="st2" d="M186.6,10.2c5.1-0.2,9.4,3.9,9.6,9c0.2,5.1-3.9,9.4-9,9.6c-5.1,0.2-9.4-3.9-9.6-9c0-0.1,0-0.2,0-0.3
				C177.6,14.4,181.6,10.3,186.6,10.2L186.6,10.2z"/>
			<path class="st4" d="M188.4-0.5c0.9-0.1,1.7-0.9,1.6-1.8c-0.1-0.8-0.7-1.5-1.6-1.6c0-0.9-0.8-1.6-1.7-1.6c0,0,0,0-0.1,0
				c-0.9,0-1.6,0.7-1.6,1.6v0c-0.9,0.1-1.6,0.8-1.6,1.7c0,0.9,0.7,1.6,1.6,1.6l0,0v3.5h-2.9c0-0.9-0.7-1.6-1.6-1.6
				c-0.9,0-1.7,0.7-1.7,1.6c-0.9,0-1.6,0.7-1.6,1.6v0c0,0.9,0.6,1.7,1.5,1.7c0,0,0,0,0.1,0c0.1,0.9,0.9,1.6,1.8,1.5
				c0.8-0.1,1.5-0.7,1.5-1.5h2.9v11.5h3.4V6.2h2.9c0,0.9,0.7,1.6,1.6,1.6c0.9,0,1.6-0.7,1.7-1.6c0.9,0,1.6-0.8,1.6-1.7
				c0-0.9-0.7-1.6-1.6-1.6c0-0.9-0.7-1.7-1.6-1.7c-0.9-0.1-1.6,0.6-1.7,1.5c0,0,0,0.1,0,0.1h-2.9L188.4-0.5L188.4-0.5z"/>
		</g>
		<path class="st5" d="M97.3,114.7v144.7c-0.1,24.7,9.3,48.5,26.2,66.5c32.2,34.9,86.5,37.1,121.4,4.9c1.7-1.5,3.3-3.2,4.8-4.8
			c16.9-17.9,26.3-41.7,26.2-66.4V114.7H97.3z"/>
		<path class="st1" d="M186.1,225.3c-7.8,30.6-11.4,52.8-19,65c-1.3,2-2.2,6.4-1.6,7.7c0.4,1,1.3,1.1,1.8,1.3l-0.7-0.4
			c0.2-0.2,0.7-0.4-5.6,9.9c-1.6,2-2.9,6.4-2.1,7.7c0.6,1,1.8,1.1,2.5,1.4l0.1,0.2c-2.1,4.9-2.1,4.9-6.8,14.5
			c-1.4,2.1-2.5,6.4-1.5,7.7c0.8,1.1,2.1,1.2,2.8,1.6l1.6,0.4l-0.1-0.1c0.8,0.2,2.1,0.9,3.2,0.4c1.5-0.6,1.9-4.9,2.9-7.3
			c0-0.1,0.1-0.2,0.1-0.2l0.5-0.9c-1,5.1-1.5,8.3-1.1,8.8c0.8,0.9,2.1,1,2.9,1.2l1.6,0.3v-0.1c0.9,0,2.1,0.4,3.2-0.2
			c1.5-0.8,1.4-5,2.1-7.6l0-0.1c-0.5,1.9-1.6,6.5,0,8c1,0.9,2.3,0.9,3,1.1l1.6,0.2l0.1,0c1.1,0.2,2.1,0,3.1-0.5
			c1.4-0.9,1.6-5.2,1.6-7.8l0,0.1c-0.1,2.7-0.6,6.9,0.7,7.9c0.9,0.8,2.2,0.5,3,0.8h1.7v0c0.8-0.1,2.1,0,3-0.8
			c1.3-1.1,0.8-5.2,0.7-7.9l-0.1-0.1c0.1,2.7,0.2,6.9,1.6,7.8c1.1,0.7,2.4,0.4,3.2,0.4l1.6-0.2c0.8-0.2,2.1-0.2,3-1.1
			c1.6-1.5,0.6-6.1,0.1-8l0,0.1c0.6,2.6,0.6,6.8,2,7.6c1.2,0.6,2.4,0.2,3.2,0.2l0,0.1l1.6-0.3c0.7-0.2,2.1-0.3,2.9-1.2
			c1.5-1.8-0.1-6.7-0.6-8.5l0-0.1c1.1,2.4,1.4,6.9,3,7.6c1.1,0.5,2.4-0.2,3.2-0.4l-0.1,0.1l1.6-0.4c0.7-0.4,2-0.5,2.8-1.6
			c0.9-1.3-0.2-5.6-1.6-7.7c-2.6-3.9-4.7-8.4-6.6-13.6l0,0c0.6-0.3,1.8-0.4,2.5-1.4c0.7-1.3-0.5-5.7-2.1-7.7
			c-5.3-8.3-6.2-9.7-6.1-9.7l-0.2,0.1l0,0c0.5-0.3,1.4-0.3,1.8-1.3c0.5-1.3-0.3-5.7-1.6-7.7c-7.6-12.2-11.2-34.4-19-65
			c-0.6,0-1.2,0.2-1.8,0.5L186.1,225.3z"/>
		<g id="d">
			<path class="st4" d="M149.3,265.8c-1.6,0.1-3.7,1.1-9.9,6.4c-2.7,5.4-5.3,10.9-9.1,15.7c-1,0.6-2.1,1.2-3.2,1.7
				c-3,0.2-6.1,0.1-9.1-0.3c-2.3-2.1-6-0.6-4.8,1.7c-1,0.9,1.2,4.2,2.8,2.8s6.9-0.1,8.8-0.8c-0.7,1.6-5.6,2.7-9,2.9
				c-3.1,0.1-2.9,3.2-1.6,5.6c1.4,1,0.3-0.2,0.7,0.4c1.4,2.1,4.4,1.8,4.5-0.2s7.4-4.8,8.4-6.4c-1.3,3.2-4.4,6.1-5.9,9.2
				c-1.6,1.6-2.7,2-0.5,5.3c2.4-0.3,2.4-0.9,3.9,0.4c3.2-0.3,3.7-1.3,3.2-3.8s1.7-7.5,2.5-8.9s0.8-2.6,1.5-3.4
				c1.2-1.3,6.7-4.1,8.1-3.4c2.7,1.4,4.6,0.5,5-2c-0.9-0.6-0.2-4.3-2-4.4c-1.5-0.2-2.4,0.3-3.7,1.4c-2.1,1.7-3.2,2.7-3.9,2.5
				c-1.6-0.4,3.1-2.7,7.4-8.3C149.2,272.5,149.6,268.5,149.3,265.8L149.3,265.8z"/>
			<path class="st4" d="M113.6,292.5c-2.1-1.2-3.4-1.2-4.3-0.3c-0.4,0.5-1,0.3-0.6-0.5c1.4-3.4,3.7-3.7,5.7-2.2l1.5,1.4
				C115.6,291.4,113.9,292.1,113.6,292.5z M144.2,289.5c2.3-1.6,4.4-1.9,5.6-1.1c0.7,0.5,1.3,0.2,0.8-0.6c-2.4-3.3-5.1-3.5-7.2-1.6
				c-0.6,0.5-1.1,1-1.5,1.6c0.6,0.7,1.4,1.3,2.4,1.6L144.2,289.5z M126.3,308.4c-0.1-1.3-0.6-2.6-1.4-3.7c-0.8,0.5-1.6,1.2-2.3,1.9
				c-2.2,2.4-2.1,5.9,1.3,8.9c0.9,0.8,1.3,0,0.9-0.9c-0.5-1.4,0.2-3.4,1.6-6.1L126.3,308.4z M117.6,301.3c-2.1,0.9-2.9,2-2.8,3.4
				c0,0.8-0.5,1.1-0.8,0.2c-2.6-6,0.1-7.1,4-6.9C118.1,299.1,117.9,300.2,117.6,301.3L117.6,301.3z"/>
			<path class="st4" d="M138.9,329c-0.8,0.3-1.8,0.1-2.7-0.7l-0.2,0.1c-1.1-0.9-2.1-3.1-0.9-3c2.5,0.9,3.9-0.2,4.4-1.9l-0.3,0
				c-0.7-0.3-1.1-0.9-1.1-1.7c0-0.8,0.5-1.4,1.2-1.7l0.1-0.1c-0.6-1.8-1.9-3.5-3.9-3.9c-2.1-0.4-3.5,0.8-2.9,2.9
				c0.1,0.5-0.4,0.7-0.8,0.2c-7.6-10.2,6.1-13.2,8.7-5.6l1.1,2.9c-0.5-2.5-1.6-4.9-3.2-6.9c-1.6-2-2.2-6,0.3-8.5
				c1.6-1.7,3.7-3.9,4.3-5.7c0-0.4,0.2-0.5,0.4-0.5s0.4,0.1,0.4,0.5l0-0.1c0.5,1.8,2.7,4.1,4.3,5.8c2.1,2.4,2.1,6,0.1,8.5
				c-1.6,2-2.6,4.4-3.1,6.9l0.9-2.9c2.7-7.6,16.3-4.6,8.7,5.6c-0.4,0.5-0.9,0.3-0.8-0.2c0.5-2.1-0.9-3.4-2.9-2.9
				c-2.1,0.4-3.4,2.1-4,4l-0.1-0.1c0.8,0.2,1.3,0.9,1.3,1.8c0,0,0,0.1,0,0.1c0,0.8-0.6,1.5-1.3,1.7l0-0.1c0.5,1.8,1.9,2.9,4.4,1.9
				c1.2-0.1,0.2,2.1-0.9,3l-0.2-0.1c-0.9,0.7-1.9,0.9-2.7,0.7l-2.9-4.3c0.2,1.7,1.2,3.2,2.7,4.1c0.5,0.5-0.3,1.6-2.3,3.2
				c-0.6,0.4-0.9,0.9-1.1,1.6c-0.1,0.2-1.1,0.2-1.2,0c-0.1-0.7-0.5-1.3-1.1-1.6c-2-1.6-2.9-2.7-2.2-3.2c1.5-0.9,2.4-2.4,2.7-4.1"/>
		</g>
		<g id="d-2">
			<path class="st4" d="M257.7,302.6c0.5,0.6,0.7,1.3,0.6,2c0,0.8,0.5,1.1,0.8,0.2c1.3-2.9,1.3-4.7,0.5-5.7"/>
			<path class="st4" d="M252,309.2c0.4,2-0.5,4.2-2.8,6.2c-0.9,0.8-1.3,0-0.9-0.9c0.4-1.1,0.1-2.4-0.6-4.1"/>
			<path class="st4" d="M257.6,302.9c-1.5,1.2-3.6,0.7-3.7-1c-0.1-2-7.4-4.8-8.4-6.4c1.3,3.2,4.4,6.1,5.9,9.2c1.6,1.6,2.7,2,0.5,5.3
				l-3.9,0.4c-3.2-0.3-3.7-1.3-3.2-3.8s-1.7-7.5-2.5-8.9s-0.8-2.6-1.5-3.4c-1.2-1.3-6.7-4.1-8.1-3.4c-2.6,1.4-4.6,0.6-5-1.9
				l-0.2-0.2c-1.8-0.9-3.4-1-4.4-0.3c-0.7,0.5-1.3,0.2-0.8-0.6c1.9-2.6,4.8-3.2,6.6-2.4l0.2,0c0.2-0.5,0.4-0.8,0.5-0.8
				c1.5-0.2,2.4,0.3,3.7,1.4c2.1,1.7,3.2,2.7,4,2.5c1.6-0.4-3.1-2.7-7.4-8.3c-5.9-7.7-6.3-11.7-6-14.4l0.1,0
				c1.6,0.1,3.7,1.1,9.9,6.4c2.7,5.4,5.3,10.9,9.1,15.7c1,0.6,2.1,1.2,3.2,1.7c3,0.2,6.1,0.1,9.1-0.3c1.4-1.3,3.4-1.3,4.4-0.5
				l0.4-0.1c1.7-0.7,3.5,0,4.7,2.8c0.4,0.8-0.3,1.1-0.6,0.5c-0.8-0.8-1.9-0.9-3.8,0l0-0.1c-0.3,1.2-1.8,2.8-3,1.8
				c-1.6-1.4-6.9-0.1-8.8-0.8c0.7,1.6,5.5,2.7,9,2.9c2,0.1,2.6,1.4,2.5,3c0,0.2,0,0.3-0.1,0.5l-2,3.2
				C257.8,302.7,257.7,302.8,257.6,302.9"/>
			<path class="st4" d="M225.8,328.8c-0.8,0.3-1.8,0.1-2.7-0.7l-0.2,0.1c-1.1-0.9-2.1-3.1-0.9-3c2.5,0.9,3.9-0.2,4.4-1.9l-0.3,0
				c-0.7-0.3-1.1-0.9-1.1-1.7c0-0.8,0.5-1.4,1.2-1.7l0.1-0.1c-0.6-1.8-1.9-3.5-3.9-3.9c-2.1-0.4-3.5,0.8-2.9,2.9
				c0.1,0.5-0.4,0.7-0.8,0.2c-7.6-10.2,6.1-13.2,8.7-5.6l1.1,2.9c-0.5-2.5-1.6-4.9-3.2-6.9c-1.6-2-2.2-6,0.3-8.5
				c1.6-1.7,3.7-3.9,4.3-5.7c0-0.4,0.2-0.5,0.4-0.5s0.4,0.1,0.4,0.5l0-0.1c0.5,1.8,2.7,4.1,4.3,5.8c2.1,2.4,2.1,6,0.1,8.5
				c-1.6,2-2.6,4.4-3.1,6.9l0.9-2.9c2.7-7.6,16.3-4.6,8.7,5.6c-0.4,0.5-0.9,0.3-0.8-0.2c0.5-2.1-0.9-3.4-2.9-2.9
				c-2.1,0.4-3.4,2.1-4,4l-0.1-0.1c0.8,0.2,1.3,0.9,1.3,1.8c0,0,0,0.1,0,0.1c0,0.8-0.6,1.5-1.3,1.7l0-0.1c0.5,1.8,1.9,2.9,4.4,1.9
				c1.2-0.1,0.2,2.1-0.9,3l-0.2-0.1c-0.9,0.7-1.9,0.9-2.7,0.7l-2.9-4.3c0.2,1.7,1.2,3.2,2.7,4.1c0.5,0.5-0.3,1.6-2.3,3.2
				c-0.6,0.4-0.9,0.9-1.1,1.6c-0.1,0.2-1.1,0.2-1.2,0c-0.1-0.7-0.5-1.3-1.1-1.6c-2-1.6-2.9-2.7-2.2-3.2c1.5-0.9,2.4-2.4,2.7-4.1"/>
		</g>
		<path class="st1" d="M165.1,266.3c-2.9,4.7-4.6,10.1-5.1,15.6c-1.7-1.5-3-3.2-3.8-4.9l-0.1,0c-0.7,3.3-2.8,6.2-5.7,7.8
			c-0.8-1.8-1.4-3.7-1.6-5.6l-0.1,0.3c-1.4,1.4-3.1,2.3-5,2.9c-0.6-3.5-0.2-7.1,1.2-10.4l-0.2,0.2c-2.8,3.8-7.3,5-12.6,4
			c3.8-3.2,6.8-7.3,8.9-11.8l-0.2-0.2c-0.4,0-0.8,0-1.1,0.1c3.5-4.3,5.9-9.3,6.9-14.8c0.3-1.5,1.4-3.8,1.4-3.8
			c-1.9-3.1-3-6.7-2.9-10.3l0,1.8c-0.1,3.6-0.2,6.4-0.3,7.5c-0.1,3.5-1.6,6.8-4.3,9c-0.7-1.1-1.3-2.2-1.8-3.4l-0.1,0
			c-0.4,9.9-2.4,18-7.1,20c-0.1-0.2-0.3-0.5-0.4-0.8l0.2,0.1c-0.8,3.2-2,5.8-3.9,7.2c-0.5-0.7-1.1-2-1.7-3.5l-0.1-0.1
			c-1,6.3-3.2,11.7-7.2,14.1c-1.2-2.6-2.1-5.2-2.6-7.8l-0.1,0.3c-2.2,4.7-5.7,7.4-10.3,8c1.9-7.8,3.3-19.8,0.8-35.3
			c-2.9-17.1-4.9-30.3-3.9-40.9c0-0.4,0.1-0.8,0.1-1.3l-0.1,0.7c-0.9-3.2-1.3-7.2-1.4-12c-0.1-6.6-0.2-13.9,0.4-21.8l-0.1-0.3
			c-0.5,0.2-0.9,0.4-1.5,0.6c0.8-4.9,1.4-10.9,2.5-17.9c3.1-19.1,12.7-35,24.2-36.4s2.8,6.9,0.4,14.4c-1.8,6.9,3.1,15.4,12.8,26.4
			c3.4,3.8,7.4,10.6,11.4,13.4c0.7,0.4,5.9-1.2,6.6-2c-0.9-0.2-1.8-0.4-2.7-0.8c4.7-3,8.6-7,11.5-11.7c4.1-6.3-1.8-17.6-4.3-23.6
			c-5.1-3.7-9.8-9.2-11.4-16.5c-0.5-3.8,10.1-2.5,17.6,1c9.1,4.3,10.4,3.1,13.6,3.8c1.2,5.5-1.3,6-3.6,5.7c5,8,7.1,15.9,8.2,27.5
			c0.9-11.5,3-19.4,8-27.4c-2.3,0.2-4.8-0.3-3.6-5.9c3.3-0.7,4.5,0.5,13.6-3.7c7.5-3.6,18.1-5,17.6-1.1c-1.6,6.7-5.6,12.6-11.3,16.5
			c-2.5,6-8.4,17.2-4.3,23.6c2.8,4.7,6.7,8.8,11.4,11.7c-0.8,0.3-1.7,0.6-2.6,0.8l0.3,0.1c0.6,0.8,5.9,2.4,6.5,2
			c4.1-2.8,7.9-9.6,11.4-13.4c9.7-11.1,14.6-19.6,12.8-26.4c-2.5-7.5-11.2-15.8,0.4-14.4s21.1,17.3,24.2,36.4
			c1.1,7,1.8,13.1,2.6,17.9c-0.8-0.3-1.6-0.6-2.3-0.9l0.3,0c0.6,8.1,0.5,15.6,0.4,22.3c-0.1,5-0.5,9-1.4,12.3l0.1-0.4
			c1.1,10.6-0.9,23.9-3.8,41.1c-2.5,15.5-1.1,27.5,0.8,35.3c-4.6-0.6-8.1-3.3-10.3-8.1l-0.1-0.2c-0.6,2.6-1.4,5.2-2.6,7.8
			c-4.1-2.4-6.2-7.8-7.2-14l-0.1,0c-0.6,1.5-1.2,2.8-1.7,3.5c-1.8-1.4-3-4-3.8-7.1l-0.2,0.6c-4.7-2-6.8-10.4-7.1-20.4l-0.1,0.5
			c-0.5,1.1-1,2.2-1.7,3.3c-2.6-2.3-4.2-5.6-4.3-9.1c-0.1-1.1-0.2-3.9-0.3-7.6l0.1-1.7c0,0.7,0,1.3-0.1,2c-0.3,3-1.3,5.8-2.8,8.3
			h-0.4c0.9,1.3,1.5,2.7,1.8,4.3c1.1,5.4,3.4,10.5,6.9,14.8c-0.5,0-0.9,0-1.4-0.1l0,0.1c2.1,4.5,5.1,8.6,8.9,11.8
			c-5.3,1-9.8-0.1-12.6-4l-0.2-0.2c1.4,3.3,1.8,6.9,1.2,10.4c-2-0.5-3.8-1.6-5.2-3.1l0.1,0.1c-0.2,1.9-0.7,3.7-1.6,5.4
			c-2.9-1.7-5-4.5-5.7-7.8l-0.2,0.2c-0.8,1.7-2.1,3.3-3.7,4.8c-0.4-5.5-2.2-10.9-5.1-15.6"/>
		<g id="e">
			<path class="st4" d="M146.1,123.6c-8.9,1-8.5,6.7-0.2,14.9c1.6,1.6,2.1,1.6,2.4-0.1c0.6-2.8,3.7-4.5,5.4-2.4
				c1.1,1.4,0.9,2.3,4.6,1.8c4.8,4,8.6,6.8,2.4,6.6c-2.7-0.1-4.8,1.5-8.4,1.3c1.1,2.1,1.2,2.3,1.8,2.4c3.5,0.6,7.1-1.5,10.6-0.9
				c7.6,1.4-12.3-20.6-11.9-21.5C153.3,123.7,148,119.7,146.1,123.6L146.1,123.6z"/>
		</g>
		<g id="e-2">
			<path class="st4" d="M227.3,123.6c8.9,1,8.5,6.7,0.2,14.9c-1.6,1.6-2.1,1.6-2.5-0.1c-0.6-2.8-3.7-4.5-5.4-2.4
				c-1.1,1.4-0.9,2.3-4.6,1.8c-4.8,4-8.6,6.8-2.4,6.6c2.7-0.1,4.8,1.5,8.4,1.3c-1.1,2.1-1.2,2.3-1.8,2.4c-3.5,0.6-7.1-1.5-10.6-0.9
				c-7.6,1.4,12.3-20.6,12-21.5C220.1,123.7,225.4,119.7,227.3,123.6L227.3,123.6z"/>
		</g>
		<path class="st3" d="M222.4,179.2v57.9c0,8.3-2.6,16.3-7.4,22.8c-0.9,1.3-2,2.5-3.1,3.7c-13.1,14-35,14.7-49,1.6c0,0,0,0,0,0
			c-0.5-0.5-1-1-1.5-1.5c-6.8-7.2-10.5-16.7-10.5-26.6v-58L222.4,179.2L222.4,179.2z"/>
		<path class="st1" d="M222.4,214.7v14.9h-28.3v44.3c-2.5,0.5-5,0.8-7.5,0.8c-2.5,0-5-0.2-7.5-0.8v-44.3H151v-14.9h28.3v-35.5h14.9
			v35.5H222.4z"/>
	</g>
</g>
</svg>
